<svg width="100" height="37" viewBox="0 0 100 37" fill="none" xmlns="http://www.w3.org/2000/svg">
<g clip-path="url(#clip0_3133_336)">
<path fill-rule="evenodd" clip-rule="evenodd" d="M12.1297 0.0321721C23.867 0.0643461 24.0047 0.0643461 25.0004 0.289563C25.5513 0.418259 26.3352 0.643477 26.7483 0.782897C27.1615 0.922317 27.9454 1.27623 28.4962 1.55507C29.0471 1.84464 29.5238 2.11275 29.5555 2.14493C29.5873 2.1771 29.778 2.32724 29.9793 2.46667C30.1805 2.61681 30.5195 2.8742 30.7208 3.05652C30.9221 3.22811 31.4199 3.71072 31.8119 4.12898C32.2038 4.53652 32.617 4.98695 32.7335 5.12638C32.85 5.25507 32.9454 5.38377 32.9454 5.41594C32.9454 5.44811 33.0831 5.67333 33.2526 5.92C33.4115 6.17739 33.7399 6.74579 33.9623 7.19623C34.1954 7.63594 34.4602 8.19362 34.5555 8.42956C34.6615 8.65478 34.831 9.23391 34.9475 9.7058C35.064 10.1777 35.2123 11.1214 35.2865 11.7971C35.3924 12.7623 35.3924 13.2878 35.2971 14.2101C35.2335 14.8643 35.0534 15.8617 34.9051 16.4409C34.7568 17.0093 34.5979 17.567 34.5555 17.6635C34.5026 17.7707 34.2589 18.2962 33.9941 18.8217C33.7399 19.3472 33.475 19.862 33.4009 19.9478C33.3373 20.0336 33.0513 20.4197 32.7653 20.8058C32.4899 21.1919 31.886 21.8783 31.4411 22.3287C30.9856 22.7899 30.2229 23.4226 29.7356 23.7443C29.2589 24.0554 28.5704 24.4629 28.2102 24.6559C27.8394 24.8383 27.1827 25.1064 26.7483 25.2565C26.314 25.4067 25.7843 25.5246 25.5831 25.5246C25.3818 25.5246 25.1911 25.5675 25.1593 25.6319C25.1276 25.6962 25.4242 26.4041 25.8055 27.2084C26.1975 28.0235 26.8225 29.3426 27.2038 30.1362C27.5746 30.9299 28.3161 32.4742 28.8352 33.5681C29.3649 34.662 29.7462 35.5843 29.6932 35.6272C29.6509 35.6809 28.6339 35.7023 25.2653 35.6594L22.903 30.887C21.6 28.2594 20.5301 26.1038 20.5195 26.093C20.5089 26.0716 18.1255 26.0609 15.2335 26.0609C12.331 26.0609 9.88392 26.0394 9.79918 26.0072C9.66147 25.9643 9.64028 24.6559 9.64028 15.1754C9.64028 5.69478 9.61909 4.38637 9.48138 4.34348C9.39664 4.3113 8.40087 4.28985 7.27799 4.28985C6.1657 4.28985 5.02164 4.32203 4.23774 4.45072V19.9478C4.23774 28.4739 4.23774 35.5093 4.23774 35.5843C4.23774 35.6809 3.78223 35.7023 2.23562 35.6809C1.13392 35.6701 0.191128 35.6165 0.138162 35.5736C0.095789 35.52 0.0322297 27.5409 0.0110432 17.8243C-0.0313297 2.67043 -0.0101432 0.160868 0.116975 0.0857953C0.201721 0.0428968 5.60426 0.0107229 12.1297 0.0321721ZM13.8776 4.3971C13.8776 20.6128 13.8988 21.6745 14.0365 21.7174C14.1212 21.7496 16.1657 21.771 18.5598 21.771C21.9284 21.771 23.1466 21.7388 23.8352 21.6209C24.3331 21.5243 25.064 21.342 25.4771 21.2133C25.8903 21.0739 26.6212 20.6878 27.1191 20.3554C27.617 20.0229 28.2949 19.4759 28.6233 19.122C28.9623 18.7788 29.3119 18.382 29.4178 18.2319C29.5132 18.0817 29.6191 17.9423 29.6509 17.9101C29.6827 17.878 29.778 17.7385 29.8627 17.5884C29.9475 17.4383 30.1488 17.0522 30.3077 16.7304C30.4666 16.4087 30.6996 15.7759 30.8161 15.3362C30.9432 14.8965 31.0704 14.0922 31.1021 13.5667C31.1445 12.9875 31.1233 12.2797 31.0492 11.7971C30.975 11.3574 30.8691 10.8212 30.8055 10.6174C30.742 10.4136 30.5619 9.94174 30.3924 9.5771C30.2229 9.20174 30.0852 8.88 30.0852 8.84782C30.0852 8.81565 29.9157 8.53681 29.6932 8.23652C29.4814 7.92551 28.8988 7.26058 28.4009 6.75652C27.6382 5.98435 27.3204 5.75913 26.4305 5.31942C25.8479 5.02985 25.1805 4.72956 24.9475 4.64377C24.7144 4.56869 24.0259 4.45072 23.4115 4.3971C22.7971 4.33275 20.5089 4.30058 18.3267 4.30058C16.1445 4.3113 14.2483 4.33275 14.1106 4.3542L13.8776 4.3971ZM86.8119 0.450433C87.278 0.439708 88.3585 0.504056 89.1954 0.589853C90.0428 0.67565 91.0915 0.825795 91.5259 0.911592C91.9708 1.00811 92.8288 1.25478 93.4326 1.46927C94.0471 1.68377 94.9369 2.03768 95.3924 2.25217C95.8585 2.47739 96.6 2.89565 97.0343 3.17449C97.4793 3.46406 98.0937 3.91449 98.4115 4.17188C98.7399 4.42927 99.2271 4.87971 99.5026 5.16927C99.9369 5.60898 99.9899 5.71623 99.8733 5.86637C99.7992 5.9629 99.2589 6.5313 98.6657 7.13188C98.0831 7.72174 97.4687 8.31159 97.0343 8.68695L96.2716 8.03275C95.8479 7.66811 95.1488 7.14261 94.7038 6.85304C94.2695 6.56348 93.7504 6.27391 93.5386 6.20956C93.3373 6.14522 93.1254 6.04869 93.0619 6.0058C93.0089 5.95217 92.6488 5.7913 92.2674 5.63043C91.8966 5.48029 91.367 5.30869 91.1021 5.24435C90.8479 5.19072 90.2229 5.06203 89.725 4.96551C89.1424 4.85826 88.2632 4.79391 87.1826 4.79391C86.1127 4.79391 85.2335 4.85826 84.6403 4.96551C84.153 5.06203 83.4856 5.21217 83.1572 5.29797C82.8394 5.38377 82.2886 5.55536 81.939 5.69478C81.6 5.82348 81.2928 5.97362 81.2822 6.02724C81.2716 6.08087 81.1763 6.12377 81.0704 6.12377C80.9644 6.12377 80.5937 6.27391 80.2441 6.46695C79.9051 6.66 79.5873 6.83159 79.5555 6.87449C79.5343 6.90666 79.3437 7.04608 79.1318 7.1855C78.9305 7.33565 78.7399 7.47507 78.7081 7.50724C78.6869 7.53942 78.4962 7.68956 78.2843 7.83971C78.0831 8.00058 77.7017 8.33304 77.4369 8.60116C77.1826 8.85855 76.8013 9.28753 76.5894 9.5342C76.3882 9.79159 76.0492 10.2742 75.8267 10.6067C75.6043 10.9391 75.2441 11.5933 75.011 12.0652C74.7886 12.5371 74.4814 13.2878 74.3331 13.7275C74.1848 14.178 73.9835 14.993 73.8988 15.5507C73.8034 16.162 73.7399 17.2667 73.7293 18.2855C73.7293 19.2293 73.7822 20.291 73.8458 20.6449C73.9093 20.9988 74.0259 21.578 74.1106 21.9319C74.1954 22.2858 74.3649 22.8435 74.4814 23.1652C74.5979 23.4977 74.8733 24.0983 75.0746 24.5058C75.2865 24.9241 75.5725 25.4174 75.7102 25.6104C75.8479 25.8035 75.9538 26.0072 75.9538 26.0609C75.9538 26.1252 76.0068 26.1681 76.0598 26.1681C76.1233 26.1681 76.1657 26.2217 76.1657 26.2754C76.1657 26.3397 76.3034 26.5435 76.4623 26.7258C76.6212 26.9081 77.1191 27.4336 77.564 27.8841C78.0301 28.3345 78.814 28.9672 79.3649 29.3104C79.9157 29.6536 80.8267 30.1255 81.4093 30.3507C81.992 30.5867 82.9454 30.8762 83.528 31.0049C84.3437 31.1872 84.9793 31.2409 86.2822 31.2516C87.3098 31.2623 88.2949 31.2087 88.7716 31.1229C89.2165 31.0371 89.9793 30.8548 90.4665 30.7046C90.9644 30.5545 91.5894 30.34 91.8437 30.2328C92.1085 30.1148 92.3945 29.9861 92.4793 29.9432C92.5746 29.8896 92.8818 29.718 93.1678 29.5571C93.4644 29.3855 94.0259 29.0101 95.1382 28.1522L95.1276 17.9101L95.5831 17.8565C95.8267 17.8136 96.8649 17.8029 99.7356 17.8565L99.7886 35.0696L99.5555 35.1017C99.4284 35.1125 98.475 35.1125 95.5513 35.0696V33.9971C95.5513 33.2142 95.5195 32.9246 95.4242 32.9246C95.35 32.9246 95.1276 33.0533 94.9157 33.2035C94.7144 33.3643 94.1212 33.6968 93.5915 33.9435C93.0725 34.2009 92.331 34.5012 91.9496 34.6299C91.5788 34.7478 90.8797 34.9409 90.4136 35.0588C89.9581 35.1768 89.0047 35.327 88.2949 35.3913C87.5958 35.4557 86.4835 35.4986 85.8055 35.4878C85.1382 35.4771 84.1848 35.4342 83.6869 35.3806C83.1996 35.327 82.2674 35.1554 81.6212 35.0052C80.9856 34.8443 80.0534 34.5655 79.5555 34.3725C79.0682 34.1901 78.3267 33.8577 77.9136 33.6646C77.511 33.4609 76.939 33.1499 76.6424 32.9783C76.3564 32.8067 75.7632 32.4099 75.3182 32.0774C74.8839 31.7557 74.1954 31.1443 73.7822 30.7368C73.3797 30.3186 72.8924 29.793 72.7017 29.5785C72.511 29.3533 72.0238 28.6562 71.6106 28.0235C71.1975 27.3907 70.7314 26.6078 70.5937 26.2754C70.4454 25.9536 70.2653 25.5461 70.1805 25.3638C70.1064 25.1922 69.8945 24.613 69.725 24.0768C69.5555 23.5513 69.3331 22.6826 69.2377 22.1464C69.1424 21.6209 69.0047 20.4412 68.9517 19.5188C68.867 18.3391 68.867 17.4597 68.9517 16.4623C69.0153 15.7009 69.1424 14.7357 69.2271 14.3174C69.3119 13.9099 69.439 13.3736 69.5026 13.1377C69.5767 12.9017 69.6721 12.5693 69.7356 12.387C69.7886 12.2154 69.9369 11.8078 70.064 11.4754C70.1911 11.1536 70.5195 10.4029 70.8161 9.81304C71.1021 9.22319 71.5471 8.45101 71.8013 8.0971C72.0555 7.74319 72.3733 7.3142 72.5005 7.14261C72.6276 6.97101 73.0195 6.50985 73.3585 6.13449C73.7081 5.7484 74.4284 5.08348 74.9475 4.65449C75.4771 4.22551 75.9856 3.79652 76.0915 3.71072C76.1975 3.6142 76.3034 3.53913 76.3246 3.53913C76.3564 3.53913 76.6848 3.35681 77.0449 3.13159C77.4051 2.90638 78.1254 2.52029 78.6339 2.27362C79.1424 2.02695 80.0534 1.66232 80.6466 1.45855C81.2399 1.25478 82.2568 0.99739 82.8924 0.868694C83.5386 0.750723 84.492 0.611303 85.011 0.557679C85.5407 0.504056 86.3564 0.461158 86.8119 0.450433ZM64.725 0.428984V4.61159L59.6721 4.63304C56.886 4.64377 54.5555 4.65449 54.492 4.65449C54.4178 4.66522 54.3437 4.69739 54.3119 4.71884C54.2695 4.75101 54.2483 12.0009 54.2377 36.8928H49.4708V4.61159L44.4178 4.62232C41.6318 4.62232 39.2801 4.62232 39.1742 4.62232C39.0047 4.61159 38.9835 4.44 38.9729 2.59536C38.9623 1.48 38.9941 0.546955 39.0365 0.504056C39.0894 0.461158 44.8945 0.428984 64.725 0.428984Z" fill="#EB6655"/>
</g>
<defs>
<clipPath id="clip0_3133_336">
<rect width="100" height="37" fill="white"/>
</clipPath>
</defs>
</svg>
